{
	"asset":{
		"generator":"Khronos glTF Blender I/O v3.6.28",
		"version":"2.0"
	},
	"scene":0,
	"scenes":[
		{
			"name":"Scene",
			"nodes":[
				0
			]
		}
	],
	"nodes":[
		{
			"mesh":0,
			"name":"Sphere",
			"rotation":[
				-4.879005064140074e-05,
				0.9062755703926086,
				0.001146699651144445,
				0.4226858615875244
			]
		}
	],
	"materials":[
		{
			"doubleSided":true,
			"name":"Material.009",
			"pbrMetallicRoughness":{
				"baseColorFactor":[
					0.006216820329427719,
					0.37804681062698364,
					0.6827744245529175,
					1
				],
				"metallicFactor":0,
				"roughnessFactor":0.5
			}
		},
		{
			"doubleSided":true,
			"name":"Material.008",
			"pbrMetallicRoughness":{
				"baseColorFactor":[
					0.04057749733328819,
					0.8162760734558105,
					0.11648337543010712,
					1
				],
				"metallicFactor":0,
				"roughnessFactor":0.5
			}
		},
		{
			"doubleSided":true,
			"name":"Material.010",
			"pbrMetallicRoughness":{
				"baseColorFactor":[
					0.05683440342545509,
					0.24227656424045563,
					0.10035599768161774,
					1
				],
				"metallicFactor":0,
				"roughnessFactor":0.5
			}
		},
		{
			"doubleSided":true,
			"name":"Material.005",
			"pbrMetallicRoughness":{
				"baseColorFactor":[
					0.6434436440467834,
					0.759128212928772,
					0.805510401725769,
					1
				],
				"metallicFactor":0,
				"roughnessFactor":0.5
			}
		}
	],
	"meshes":[
		{
			"name":"Sphere.002",
			"primitives":[
				{
					"attributes":{
						"POSITION":0,
						"NORMAL":1,
						"TEXCOORD_0":2
					},
					"indices":3,
					"material":0
				},
				{
					"attributes":{
						"POSITION":4,
						"NORMAL":5,
						"TEXCOORD_0":6
					},
					"indices":7,
					"material":1
				},
				{
					"attributes":{
						"POSITION":8,
						"NORMAL":9,
						"TEXCOORD_0":10
					},
					"indices":11,
					"material":2
				},
				{
					"attributes":{
						"POSITION":12,
						"NORMAL":13,
						"TEXCOORD_0":14
					},
					"indices":15,
					"material":3
				}
			]
		}
	],
	"accessors":[
		{
			"bufferView":0,
			"componentType":5126,
			"count":3639,
			"max":[
				0.999829113483429,
				1.0009301900863647,
				1.0017833709716797
			],
			"min":[
				-1.0001885890960693,
				-0.9818867444992065,
				-0.9991334080696106
			],
			"type":"VEC3"
		},
		{
			"bufferView":1,
			"componentType":5126,
			"count":3639,
			"type":"VEC3"
		},
		{
			"bufferView":2,
			"componentType":5126,
			"count":3639,
			"type":"VEC2"
		},
		{
			"bufferView":3,
			"componentType":5123,
			"count":3681,
			"type":"SCALAR"
		},
		{
			"bufferView":4,
			"componentType":5126,
			"count":2993,
			"max":[
				1.0460973978042603,
				1.0391769409179688,
				1.0562149286270142
			],
			"min":[
				-1.0424513816833496,
				-1.0673469305038452,
				-1.0396809577941895
			],
			"type":"VEC3"
		},
		{
			"bufferView":5,
			"componentType":5126,
			"count":2993,
			"type":"VEC3"
		},
		{
			"bufferView":6,
			"componentType":5126,
			"count":2993,
			"type":"VEC2"
		},
		{
			"bufferView":7,
			"componentType":5123,
			"count":3063,
			"type":"SCALAR"
		},
		{
			"bufferView":8,
			"componentType":5126,
			"count":2605,
			"max":[
				1.0460973978042603,
				1.0391769409179688,
				1.0562149286270142
			],
			"min":[
				-1.0424513816833496,
				-0.9818867444992065,
				-1.0396809577941895
			],
			"type":"VEC3"
		},
		{
			"bufferView":9,
			"componentType":5126,
			"count":2605,
			"type":"VEC3"
		},
		{
			"bufferView":10,
			"componentType":5126,
			"count":2605,
			"type":"VEC2"
		},
		{
			"bufferView":11,
			"componentType":5123,
			"count":5421,
			"type":"SCALAR"
		},
		{
			"bufferView":12,
			"componentType":5126,
			"count":3,
			"max":[
				0.024801965802907944,
				-0.9536531567573547,
				0.3025105893611908
			],
			"min":[
				-0.02865464799106121,
				-1.0263338088989258,
				0.28024351596832275
			],
			"type":"VEC3"
		},
		{
			"bufferView":13,
			"componentType":5126,
			"count":3,
			"type":"VEC3"
		},
		{
			"bufferView":14,
			"componentType":5126,
			"count":3,
			"type":"VEC2"
		},
		{
			"bufferView":15,
			"componentType":5123,
			"count":3,
			"type":"SCALAR"
		}
	],
	"bufferViews":[
		{
			"buffer":0,
			"byteLength":43668,
			"byteOffset":0,
			"target":34962
		},
		{
			"buffer":0,
			"byteLength":43668,
			"byteOffset":43668,
			"target":34962
		},
		{
			"buffer":0,
			"byteLength":29112,
			"byteOffset":87336,
			"target":34962
		},
		{
			"buffer":0,
			"byteLength":7362,
			"byteOffset":116448,
			"target":34963
		},
		{
			"buffer":0,
			"byteLength":35916,
			"byteOffset":123812,
			"target":34962
		},
		{
			"buffer":0,
			"byteLength":35916,
			"byteOffset":159728,
			"target":34962
		},
		{
			"buffer":0,
			"byteLength":23944,
			"byteOffset":195644,
			"target":34962
		},
		{
			"buffer":0,
			"byteLength":6126,
			"byteOffset":219588,
			"target":34963
		},
		{
			"buffer":0,
			"byteLength":31260,
			"byteOffset":225716,
			"target":34962
		},
		{
			"buffer":0,
			"byteLength":31260,
			"byteOffset":256976,
			"target":34962
		},
		{
			"buffer":0,
			"byteLength":20840,
			"byteOffset":288236,
			"target":34962
		},
		{
			"buffer":0,
			"byteLength":10842,
			"byteOffset":309076,
			"target":34963
		},
		{
			"buffer":0,
			"byteLength":36,
			"byteOffset":319920,
			"target":34962
		},
		{
			"buffer":0,
			"byteLength":36,
			"byteOffset":319956,
			"target":34962
		},
		{
			"buffer":0,
			"byteLength":24,
			"byteOffset":319992,
			"target":34962
		},
		{
			"buffer":0,
			"byteLength":6,
			"byteOffset":320016,
			"target":34963
		}
	],
	"buffers":[
		{
			"byteLength":320024,
			"uri":"data:application/octet-stream;base64,"
		}
	]
}
