<?xml version="1.0" encoding="UTF-8" standalone="no"?>
<!DOCTYPE svg PUBLIC "-//W3C//DTD SVG 1.1//EN" "http://www.w3.org/Graphics/SVG/1.1/DTD/svg11.dtd">
<svg xmlns="http://www.w3.org/2000/svg" version="1.1" viewBox="0.00 0.00 444.00 110.00">
<g stroke-width="2.00" fill="none" stroke-linecap="butt">
<path stroke="#aadcc0" vector-effect="non-scaling-stroke" d="
  M 112.07 0.00
  Q 111.95 49.49 112.01 99.00
  Q 112.02 106.14 112.40 110.00"
/>
<path stroke="#aadcc0" vector-effect="non-scaling-stroke" d="
  M 0.00 108.74
  Q 0.15 109.51 0.30 109.57
  A 0.52 0.40 12.5 0 0 0.99 109.25
  L 0.98 0.65
  A 0.40 0.40 0.0 0 0 0.30 0.36
  Q 0.11 0.55 0.00 0.50"
/>
<path stroke="#aadcc0" vector-effect="non-scaling-stroke" d="
  M 24.51 68.76
  C 19.63 75.91 19.35 89.06 30.84 90.11
  C 34.97 90.49 39.18 88.98 42.87 87.16
  Q 43.37 86.91 43.55 87.45
  C 45.87 94.74 50.16 101.97 59.26 100.25
  C 64.27 99.31 68.42 91.75 69.59 87.33
  A 0.35 0.35 0.0 0 1 70.10 87.12
  C 74.71 89.77 81.06 91.27 85.94 89.11
  C 93.85 85.61 92.40 74.90 88.58 68.62
  Q 88.30 68.16 88.81 68.01
  C 106.74 62.71 106.04 46.53 88.44 41.74
  A 0.19 0.19 0.0 0 1 88.32 41.46
  Q 90.10 38.45 91.01 35.10
  C 93.78 24.97 87.43 18.07 77.17 20.24
  Q 73.33 21.05 69.88 22.99
  A 0.27 0.27 0.0 0 1 69.48 22.82
  C 67.64 15.92 62.75 8.07 54.49 9.66
  C 48.53 10.81 44.98 17.04 43.38 22.53
  Q 43.21 23.08 42.72 22.80
  C 26.81 13.98 15.30 26.02 24.34 41.33
  Q 24.65 41.86 24.06 42.03
  C 17.85 43.85 10.35 48.45 10.92 55.57
  C 11.52 63.05 18.43 65.64 24.33 68.14
  Q 24.80 68.34 24.51 68.76"
/>
<path stroke="#aadcc0" vector-effect="non-scaling-stroke" d="
  M 115.91 0.00
  Q 115.96 49.62 115.99 99.25
  Q 116.00 104.69 115.52 110.00"
/>
<path stroke="#aadcc0" vector-effect="non-scaling-stroke" d="
  M 371.16 54.92
  A 18.94 18.94 0.0 0 0 352.22 35.98
  A 18.94 18.94 0.0 0 0 333.28 54.92
  A 18.94 18.94 0.0 0 0 352.22 73.86
  A 18.94 18.94 0.0 0 0 371.16 54.92"
/>
<path stroke="#aadcc0" vector-effect="non-scaling-stroke" d="
  M 392.39 65.72
  C 388.31 67.11 384.31 65.42 382.62 61.38
  Q 382.36 60.75 381.69 60.91
  L 374.70 62.59
  Q 374.02 62.75 374.26 63.41
  C 377.66 72.49 387.97 76.19 396.67 72.46
  Q 401.87 70.23 403.18 65.24
  C 405.91 54.81 393.10 51.58 386.30 48.60
  Q 383.84 47.52 384.73 45.12
  A 1.86 1.85 2.4 0 1 386.00 43.96
  Q 392.21 42.30 394.69 48.02
  A 0.28 0.27 69.6 0 0 395.02 48.18
  L 402.85 46.11
  A 0.32 0.32 0.0 0 0 403.07 45.70
  C 399.76 36.65 389.65 33.73 381.46 37.92
  C 376.19 40.62 373.40 47.26 377.12 52.20
  C 378.92 54.59 383.66 57.18 386.54 57.91
  C 389.23 58.59 396.11 60.44 393.78 64.57
  A 2.52 2.49 5.0 0 1 392.39 65.72"
/>
<path stroke="#aadcc0" vector-effect="non-scaling-stroke" d="
  M 135.21 61.25
  L 138.70 61.25
  Q 139.11 61.25 139.31 61.61
  L 145.73 73.06
  Q 145.83 73.24 146.04 73.24
  L 155.28 73.25
  Q 155.62 73.25 155.45 72.96
  L 147.89 60.29
  A 0.40 0.39 -32.6 0 1 148.01 59.77
  Q 154.88 55.21 153.87 47.51
  C 152.13 34.27 135.55 36.67 126.41 36.77
  Q 125.90 36.78 125.90 37.29
  L 125.90 72.95
  A 0.30 0.30 0.0 0 0 126.20 73.25
  L 134.42 73.24
  Q 134.65 73.24 134.65 73.01
  L 134.67 61.79
  Q 134.67 61.25 135.21 61.25"
/>
<path stroke="#aadcc0" vector-effect="non-scaling-stroke" d="
  M 170.00 58.89
  A 0.39 0.39 0.0 0 1 170.39 58.50
  L 183.39 58.50
  A 0.39 0.39 0.0 0 0 183.78 58.11
  L 183.79 51.39
  A 0.39 0.39 0.0 0 0 183.40 51.00
  L 170.31 50.99
  A 0.39 0.39 0.0 0 1 169.93 50.60
  L 169.99 45.38
  A 0.39 0.39 0.0 0 1 170.38 45.00
  L 187.31 45.00
  A 0.39 0.39 0.0 0 0 187.70 44.61
  L 187.67 37.14
  A 0.39 0.39 0.0 0 0 187.28 36.75
  L 161.64 36.75
  A 0.39 0.39 0.0 0 0 161.25 37.14
  L 161.24 72.86
  A 0.39 0.39 0.0 0 0 161.63 73.25
  L 187.58 73.25
  A 0.39 0.39 0.0 0 0 187.97 72.86
  L 187.98 65.39
  A 0.39 0.39 0.0 0 0 187.59 65.00
  L 170.34 65.00
  A 0.39 0.39 0.0 0 1 169.95 64.61
  L 170.00 58.89"
/>
<path stroke="#aadcc0" vector-effect="non-scaling-stroke" d="
  M 205.03 61.73
  C 215.25 61.98 225.67 59.61 223.42 46.33
  C 222.38 40.21 216.83 37.00 211.00 36.85
  Q 203.65 36.66 196.16 36.78
  Q 195.69 36.79 195.69 37.26
  L 195.69 72.97
  A 0.28 0.28 0.0 0 0 195.97 73.25
  L 204.18 73.24
  Q 204.40 73.24 204.40 73.01
  L 204.41 62.34
  Q 204.41 61.72 205.03 61.73"
/>
<path stroke="#aadcc0" vector-effect="non-scaling-stroke" d="
  M 250.18 61.96
  C 248.04 66.98 239.80 66.94 237.44 62.18
  Q 236.57 60.45 236.53 55.65
  Q 236.44 46.18 236.51 37.06
  Q 236.51 36.75 236.20 36.75
  L 228.06 36.75
  Q 227.76 36.75 227.76 37.05
  Q 227.72 47.00 227.85 57.50
  C 227.99 68.65 235.42 75.13 246.49 73.64
  C 253.90 72.64 259.18 67.35 259.62 59.74
  Q 260.07 51.92 259.74 37.00
  A 0.26 0.26 0.0 0 0 259.48 36.75
  L 251.47 36.75
  A 0.32 0.32 0.0 0 0 251.15 37.07
  Q 251.16 45.52 251.37 54.49
  Q 251.47 58.93 250.18 61.96"
/>
<path stroke="#aadcc0" vector-effect="non-scaling-stroke" d="
  M 275.74 61.25
  L 279.25 61.25
  Q 279.68 61.25 279.89 61.62
  L 286.28 72.97
  A 0.56 0.55 75.0 0 0 286.76 73.25
  L 295.79 73.25
  A 0.23 0.23 0.0 0 0 295.98 72.90
  L 288.58 60.45
  Q 288.30 59.99 288.74 59.68
  Q 294.87 55.40 294.68 48.80
  C 294.25 34.37 276.22 36.63 266.97 36.79
  Q 266.50 36.80 266.50 37.26
  L 266.50 73.00
  A 0.25 0.25 0.0 0 0 266.75 73.25
  L 274.99 73.24
  Q 275.22 73.24 275.22 73.01
  L 275.24 61.76
  Q 275.24 61.25 275.74 61.25"
/>
<path stroke="#aadcc0" vector-effect="non-scaling-stroke" d="
  M 311.03 61.74
  C 320.55 61.91 331.13 60.14 329.78 47.76
  C 329.14 42.00 325.26 37.76 319.56 37.06
  Q 313.62 36.34 302.18 36.90
  Q 301.80 36.91 301.80 37.30
  L 301.80 73.02
  Q 301.80 73.24 302.02 73.24
  L 310.25 73.25
  Q 310.51 73.25 310.51 73.00
  L 310.50 62.25
  Q 310.50 61.73 311.03 61.74"
/>
<path stroke="#aadcc0" vector-effect="non-scaling-stroke" d="
  M 417.61 45.37
  A 0.37 0.37 0.0 0 1 417.98 45.00
  L 434.95 45.00
  A 0.37 0.37 0.0 0 0 435.32 44.63
  L 435.30 37.12
  A 0.37 0.37 0.0 0 0 434.93 36.75
  L 409.29 36.75
  A 0.37 0.37 0.0 0 0 408.92 37.12
  L 408.92 72.88
  A 0.37 0.37 0.0 0 0 409.29 73.25
  L 435.27 73.25
  A 0.37 0.37 0.0 0 0 435.64 72.88
  L 435.66 65.37
  A 0.37 0.37 0.0 0 0 435.29 65.00
  L 417.93 65.00
  A 0.37 0.37 0.0 0 1 417.56 64.63
  L 417.62 58.87
  A 0.37 0.37 0.0 0 1 417.99 58.50
  L 431.12 58.50
  A 0.37 0.37 0.0 0 0 431.49 58.13
  L 431.50 51.37
  A 0.37 0.37 0.0 0 0 431.13 51.00
  L 417.93 51.00
  A 0.37 0.37 0.0 0 1 417.56 50.63
  L 417.61 45.37"
/>
<path stroke="#aadcc0" vector-effect="non-scaling-stroke" d="
  M 52.25 49.92
  C 51.26 40.63 58.43 31.18 65.51 25.90
  Q 65.92 25.60 65.83 25.10
  C 64.98 20.26 60.84 12.09 54.89 13.78
  C 49.72 15.25 47.11 22.79 46.41 27.69
  C 45.26 35.72 46.19 43.93 51.31 50.31
  Q 52.44 51.72 52.25 49.92"
/>
<path stroke="#aadcc0" vector-effect="non-scaling-stroke" d="
  M 49.26 54.07
  C 42.61 48.46 41.07 35.96 42.16 27.95
  Q 42.23 27.43 41.80 27.15
  C 37.60 24.44 27.19 20.75 25.50 28.80
  C 23.85 36.70 31.80 46.18 37.62 50.44
  Q 42.45 53.98 48.64 55.32
  Q 51.47 55.93 49.26 54.07"
/>
<path stroke="#aadcc0" vector-effect="non-scaling-stroke" d="
  M 74.67 25.36
  C 65.38 29.18 57.13 37.91 56.13 48.19
  Q 56.03 49.20 56.68 48.43
  C 62.60 41.37 74.53 39.36 82.98 40.65
  A 1.76 1.74 -70.8 0 0 84.78 39.77
  C 89.84 30.67 88.10 19.83 74.67 25.36"
/>
<path stroke="#aadcc0" vector-effect="non-scaling-stroke" d="
  M 60.76 50.66
  C 70.76 50.01 79.64 56.24 85.57 63.88
  Q 85.87 64.26 86.35 64.19
  C 95.41 62.74 104.59 53.05 91.23 47.24
  C 81.89 43.17 71.28 43.57 62.44 48.66
  Q 61.33 49.29 60.54 50.22
  Q 60.12 50.70 60.76 50.66"
/>
<path stroke="#aadcc0" vector-effect="non-scaling-stroke" d="
  M 49.29 61.78
  Q 50.83 61.00 51.86 60.12
  Q 52.90 59.25 51.55 59.39
  C 41.78 60.39 32.84 52.85 27.17 45.84
  Q 26.84 45.43 26.32 45.53
  C 19.20 46.84 8.64 55.66 19.87 61.55
  Q 34.55 69.25 49.29 61.78"
/>
<path stroke="#aadcc0" vector-effect="non-scaling-stroke" d="
  M 71.04 82.79
  C 74.79 86.14 85.87 88.49 87.42 81.18
  C 89.07 73.44 80.89 63.55 75.15 59.37
  Q 69.90 55.55 63.12 54.70
  Q 62.60 54.63 62.97 55.00
  C 70.15 62.03 72.03 72.33 70.75 81.99
  Q 70.68 82.47 71.04 82.79"
/>
<path stroke="#aadcc0" vector-effect="non-scaling-stroke" d="
  M 60.75 59.96
  C 61.50 69.36 54.44 78.87 47.26 84.28
  Q 46.89 84.57 47.04 85.01
  C 48.17 88.20 48.91 91.18 51.57 93.84
  C 56.23 98.49 61.03 96.33 63.67 91.15
  C 68.56 81.56 68.41 68.50 61.71 59.59
  Q 60.60 58.12 60.75 59.96"
/>
<path stroke="#aadcc0" vector-effect="non-scaling-stroke" d="
  M 35.23 85.72
  C 45.15 82.50 56.02 73.06 56.81 61.92
  Q 56.89 60.86 56.13 61.61
  C 49.08 68.47 39.25 70.31 29.65 69.16
  A 1.15 1.15 0.0 0 0 28.54 69.68
  Q 26.20 73.31 25.43 77.73
  C 24.35 83.92 29.73 87.50 35.23 85.72"
/>
<path stroke="#aadcc0" vector-effect="non-scaling-stroke" d="
  M 361.8577 53.6732
  A 8.79 8.79 0.0 0 0 353.0524 44.8986
  L 351.3924 44.9015
  A 8.79 8.79 0.0 0 0 342.6177 53.7068
  L 342.6223 56.3268
  A 8.79 8.79 0.0 0 0 351.4276 65.1014
  L 353.0876 65.0985
  A 8.79 8.79 0.0 0 0 361.8623 56.2932
  L 361.8577 53.6732"
/>
<path stroke="#aadcc0" vector-effect="non-scaling-stroke" d="
  M 134.65 45.38
  L 134.67 53.16
  A 0.37 0.37 0.0 0 0 135.04 53.53
  L 140.83 53.52
  A 4.18 4.05 -0.1 0 0 145.00 49.46
  L 145.00 49.04
  A 4.18 4.05 -0.1 0 0 140.81 45.00
  L 135.02 45.01
  A 0.37 0.37 0.0 0 0 134.65 45.38"
/>
<path stroke="#aadcc0" vector-effect="non-scaling-stroke" d="
  M 204.38 45.33
  L 204.44 53.25
  A 0.29 0.29 0.0 0 0 204.73 53.53
  L 209.69 53.50
  A 5.05 4.07 -0.4 0 0 214.71 49.39
  L 214.71 49.03
  A 5.05 4.07 -0.4 0 0 209.63 45.00
  L 204.67 45.03
  A 0.29 0.29 0.0 0 0 204.38 45.33"
/>
<path stroke="#aadcc0" vector-effect="non-scaling-stroke" d="
  M 275.24 45.28
  L 275.20 53.20
  A 0.29 0.29 0.0 0 0 275.49 53.49
  L 281.50 53.53
  A 4.05 4.04 -89.7 0 0 285.56 49.50
  L 285.56 49.10
  A 4.05 4.04 -89.7 0 0 281.54 45.03
  L 275.53 44.99
  A 0.29 0.29 0.0 0 0 275.24 45.28"
/>
<path stroke="#aadcc0" vector-effect="non-scaling-stroke" d="
  M 310.49 45.40
  L 310.51 53.16
  A 0.37 0.37 0.0 0 0 310.88 53.53
  L 315.86 53.51
  A 4.99 4.00 -0.2 0 0 320.84 49.49
  L 320.84 48.99
  A 4.99 4.00 -0.2 0 0 315.84 45.01
  L 310.86 45.03
  A 0.37 0.37 0.0 0 0 310.49 45.40"
/>
</g>
<path fill="#56b881" d="
  M 0.00 0.00
  L 112.07 0.00
  Q 111.95 49.49 112.01 99.00
  Q 112.02 106.14 112.40 110.00
  L 0.00 110.00
  L 0.00 108.74
  Q 0.15 109.51 0.30 109.57
  A 0.52 0.40 12.5 0 0 0.99 109.25
  L 0.98 0.65
  A 0.40 0.40 0.0 0 0 0.30 0.36
  Q 0.11 0.55 0.00 0.50
  L 0.00 0.00
  Z
  M 24.51 68.76
  C 19.63 75.91 19.35 89.06 30.84 90.11
  C 34.97 90.49 39.18 88.98 42.87 87.16
  Q 43.37 86.91 43.55 87.45
  C 45.87 94.74 50.16 101.97 59.26 100.25
  C 64.27 99.31 68.42 91.75 69.59 87.33
  A 0.35 0.35 0.0 0 1 70.10 87.12
  C 74.71 89.77 81.06 91.27 85.94 89.11
  C 93.85 85.61 92.40 74.90 88.58 68.62
  Q 88.30 68.16 88.81 68.01
  C 106.74 62.71 106.04 46.53 88.44 41.74
  A 0.19 0.19 0.0 0 1 88.32 41.46
  Q 90.10 38.45 91.01 35.10
  C 93.78 24.97 87.43 18.07 77.17 20.24
  Q 73.33 21.05 69.88 22.99
  A 0.27 0.27 0.0 0 1 69.48 22.82
  C 67.64 15.92 62.75 8.07 54.49 9.66
  C 48.53 10.81 44.98 17.04 43.38 22.53
  Q 43.21 23.08 42.72 22.80
  C 26.81 13.98 15.30 26.02 24.34 41.33
  Q 24.65 41.86 24.06 42.03
  C 17.85 43.85 10.35 48.45 10.92 55.57
  C 11.52 63.05 18.43 65.64 24.33 68.14
  Q 24.80 68.34 24.51 68.76
  Z"
/>
<path fill="#feffff" d="
  M 112.07 0.00
  L 115.91 0.00
  Q 115.96 49.62 115.99 99.25
  Q 116.00 104.69 115.52 110.00
  L 112.40 110.00
  Q 112.02 106.14 112.01 99.00
  Q 111.95 49.49 112.07 0.00
  Z"
/>
<path fill="#56b881" d="
  M 115.91 0.00
  L 444.00 0.00
  L 444.00 110.00
  L 115.52 110.00
  Q 116.00 104.69 115.99 99.25
  Q 115.96 49.62 115.91 0.00
  Z
  M 371.16 54.92
  A 18.94 18.94 0.0 0 0 352.22 35.98
  A 18.94 18.94 0.0 0 0 333.28 54.92
  A 18.94 18.94 0.0 0 0 352.22 73.86
  A 18.94 18.94 0.0 0 0 371.16 54.92
  Z
  M 392.39 65.72
  C 388.31 67.11 384.31 65.42 382.62 61.38
  Q 382.36 60.75 381.69 60.91
  L 374.70 62.59
  Q 374.02 62.75 374.26 63.41
  C 377.66 72.49 387.97 76.19 396.67 72.46
  Q 401.87 70.23 403.18 65.24
  C 405.91 54.81 393.10 51.58 386.30 48.60
  Q 383.84 47.52 384.73 45.12
  A 1.86 1.85 2.4 0 1 386.00 43.96
  Q 392.21 42.30 394.69 48.02
  A 0.28 0.27 69.6 0 0 395.02 48.18
  L 402.85 46.11
  A 0.32 0.32 0.0 0 0 403.07 45.70
  C 399.76 36.65 389.65 33.73 381.46 37.92
  C 376.19 40.62 373.40 47.26 377.12 52.20
  C 378.92 54.59 383.66 57.18 386.54 57.91
  C 389.23 58.59 396.11 60.44 393.78 64.57
  A 2.52 2.49 5.0 0 1 392.39 65.72
  Z
  M 135.21 61.25
  L 138.70 61.25
  Q 139.11 61.25 139.31 61.61
  L 145.73 73.06
  Q 145.83 73.24 146.04 73.24
  L 155.28 73.25
  Q 155.62 73.25 155.45 72.96
  L 147.89 60.29
  A 0.40 0.39 -32.6 0 1 148.01 59.77
  Q 154.88 55.21 153.87 47.51
  C 152.13 34.27 135.55 36.67 126.41 36.77
  Q 125.90 36.78 125.90 37.29
  L 125.90 72.95
  A 0.30 0.30 0.0 0 0 126.20 73.25
  L 134.42 73.24
  Q 134.65 73.24 134.65 73.01
  L 134.67 61.79
  Q 134.67 61.25 135.21 61.25
  Z
  M 170.00 58.89
  A 0.39 0.39 0.0 0 1 170.39 58.50
  L 183.39 58.50
  A 0.39 0.39 0.0 0 0 183.78 58.11
  L 183.79 51.39
  A 0.39 0.39 0.0 0 0 183.40 51.00
  L 170.31 50.99
  A 0.39 0.39 0.0 0 1 169.93 50.60
  L 169.99 45.38
  A 0.39 0.39 0.0 0 1 170.38 45.00
  L 187.31 45.00
  A 0.39 0.39 0.0 0 0 187.70 44.61
  L 187.67 37.14
  A 0.39 0.39 0.0 0 0 187.28 36.75
  L 161.64 36.75
  A 0.39 0.39 0.0 0 0 161.25 37.14
  L 161.24 72.86
  A 0.39 0.39 0.0 0 0 161.63 73.25
  L 187.58 73.25
  A 0.39 0.39 0.0 0 0 187.97 72.86
  L 187.98 65.39
  A 0.39 0.39 0.0 0 0 187.59 65.00
  L 170.34 65.00
  A 0.39 0.39 0.0 0 1 169.95 64.61
  L 170.00 58.89
  Z
  M 205.03 61.73
  C 215.25 61.98 225.67 59.61 223.42 46.33
  C 222.38 40.21 216.83 37.00 211.00 36.85
  Q 203.65 36.66 196.16 36.78
  Q 195.69 36.79 195.69 37.26
  L 195.69 72.97
  A 0.28 0.28 0.0 0 0 195.97 73.25
  L 204.18 73.24
  Q 204.40 73.24 204.40 73.01
  L 204.41 62.34
  Q 204.41 61.72 205.03 61.73
  Z
  M 250.18 61.96
  C 248.04 66.98 239.80 66.94 237.44 62.18
  Q 236.57 60.45 236.53 55.65
  Q 236.44 46.18 236.51 37.06
  Q 236.51 36.75 236.20 36.75
  L 228.06 36.75
  Q 227.76 36.75 227.76 37.05
  Q 227.72 47.00 227.85 57.50
  C 227.99 68.65 235.42 75.13 246.49 73.64
  C 253.90 72.64 259.18 67.35 259.62 59.74
  Q 260.07 51.92 259.74 37.00
  A 0.26 0.26 0.0 0 0 259.48 36.75
  L 251.47 36.75
  A 0.32 0.32 0.0 0 0 251.15 37.07
  Q 251.16 45.52 251.37 54.49
  Q 251.47 58.93 250.18 61.96
  Z
  M 275.74 61.25
  L 279.25 61.25
  Q 279.68 61.25 279.89 61.62
  L 286.28 72.97
  A 0.56 0.55 75.0 0 0 286.76 73.25
  L 295.79 73.25
  A 0.23 0.23 0.0 0 0 295.98 72.90
  L 288.58 60.45
  Q 288.30 59.99 288.74 59.68
  Q 294.87 55.40 294.68 48.80
  C 294.25 34.37 276.22 36.63 266.97 36.79
  Q 266.50 36.80 266.50 37.26
  L 266.50 73.00
  A 0.25 0.25 0.0 0 0 266.75 73.25
  L 274.99 73.24
  Q 275.22 73.24 275.22 73.01
  L 275.24 61.76
  Q 275.24 61.25 275.74 61.25
  Z
  M 311.03 61.74
  C 320.55 61.91 331.13 60.14 329.78 47.76
  C 329.14 42.00 325.26 37.76 319.56 37.06
  Q 313.62 36.34 302.18 36.90
  Q 301.80 36.91 301.80 37.30
  L 301.80 73.02
  Q 301.80 73.24 302.02 73.24
  L 310.25 73.25
  Q 310.51 73.25 310.51 73.00
  L 310.50 62.25
  Q 310.50 61.73 311.03 61.74
  Z
  M 417.61 45.37
  A 0.37 0.37 0.0 0 1 417.98 45.00
  L 434.95 45.00
  A 0.37 0.37 0.0 0 0 435.32 44.63
  L 435.30 37.12
  A 0.37 0.37 0.0 0 0 434.93 36.75
  L 409.29 36.75
  A 0.37 0.37 0.0 0 0 408.92 37.12
  L 408.92 72.88
  A 0.37 0.37 0.0 0 0 409.29 73.25
  L 435.27 73.25
  A 0.37 0.37 0.0 0 0 435.64 72.88
  L 435.66 65.37
  A 0.37 0.37 0.0 0 0 435.29 65.00
  L 417.93 65.00
  A 0.37 0.37 0.0 0 1 417.56 64.63
  L 417.62 58.87
  A 0.37 0.37 0.0 0 1 417.99 58.50
  L 431.12 58.50
  A 0.37 0.37 0.0 0 0 431.49 58.13
  L 431.50 51.37
  A 0.37 0.37 0.0 0 0 431.13 51.00
  L 417.93 51.00
  A 0.37 0.37 0.0 0 1 417.56 50.63
  L 417.61 45.37
  Z"
/>
<path fill="#feffff" d="
  M 0.00 108.74
  L 0.00 0.50
  Q 0.11 0.55 0.30 0.36
  A 0.40 0.40 0.0 0 1 0.98 0.65
  L 0.99 109.25
  A 0.52 0.40 12.5 0 1 0.30 109.57
  Q 0.15 109.51 0.00 108.74
  Z"
/>
<path fill="#feffff" d="
  M 24.33 68.14
  C 18.43 65.64 11.52 63.05 10.92 55.57
  C 10.35 48.45 17.85 43.85 24.06 42.03
  Q 24.65 41.86 24.34 41.33
  C 15.30 26.02 26.81 13.98 42.72 22.80
  Q 43.21 23.08 43.38 22.53
  C 44.98 17.04 48.53 10.81 54.49 9.66
  C 62.75 8.07 67.64 15.92 69.48 22.82
  A 0.27 0.27 0.0 0 0 69.88 22.99
  Q 73.33 21.05 77.17 20.24
  C 87.43 18.07 93.78 24.97 91.01 35.10
  Q 90.10 38.45 88.32 41.46
  A 0.19 0.19 0.0 0 0 88.44 41.74
  C 106.04 46.53 106.74 62.71 88.81 68.01
  Q 88.30 68.16 88.58 68.62
  C 92.40 74.90 93.85 85.61 85.94 89.11
  C 81.06 91.27 74.71 89.77 70.10 87.12
  A 0.35 0.35 0.0 0 0 69.59 87.33
  C 68.42 91.75 64.27 99.31 59.26 100.25
  C 50.16 101.97 45.87 94.74 43.55 87.45
  Q 43.37 86.91 42.87 87.16
  C 39.18 88.98 34.97 90.49 30.84 90.11
  C 19.35 89.06 19.63 75.91 24.51 68.76
  Q 24.80 68.34 24.33 68.14
  Z
  M 52.25 49.92
  C 51.26 40.63 58.43 31.18 65.51 25.90
  Q 65.92 25.60 65.83 25.10
  C 64.98 20.26 60.84 12.09 54.89 13.78
  C 49.72 15.25 47.11 22.79 46.41 27.69
  C 45.26 35.72 46.19 43.93 51.31 50.31
  Q 52.44 51.72 52.25 49.92
  Z
  M 49.26 54.07
  C 42.61 48.46 41.07 35.96 42.16 27.95
  Q 42.23 27.43 41.80 27.15
  C 37.60 24.44 27.19 20.75 25.50 28.80
  C 23.85 36.70 31.80 46.18 37.62 50.44
  Q 42.45 53.98 48.64 55.32
  Q 51.47 55.93 49.26 54.07
  Z
  M 74.67 25.36
  C 65.38 29.18 57.13 37.91 56.13 48.19
  Q 56.03 49.20 56.68 48.43
  C 62.60 41.37 74.53 39.36 82.98 40.65
  A 1.76 1.74 -70.8 0 0 84.78 39.77
  C 89.84 30.67 88.10 19.83 74.67 25.36
  Z
  M 60.76 50.66
  C 70.76 50.01 79.64 56.24 85.57 63.88
  Q 85.87 64.26 86.35 64.19
  C 95.41 62.74 104.59 53.05 91.23 47.24
  C 81.89 43.17 71.28 43.57 62.44 48.66
  Q 61.33 49.29 60.54 50.22
  Q 60.12 50.70 60.76 50.66
  Z
  M 49.29 61.78
  Q 50.83 61.00 51.86 60.12
  Q 52.90 59.25 51.55 59.39
  C 41.78 60.39 32.84 52.85 27.17 45.84
  Q 26.84 45.43 26.32 45.53
  C 19.20 46.84 8.64 55.66 19.87 61.55
  Q 34.55 69.25 49.29 61.78
  Z
  M 71.04 82.79
  C 74.79 86.14 85.87 88.49 87.42 81.18
  C 89.07 73.44 80.89 63.55 75.15 59.37
  Q 69.90 55.55 63.12 54.70
  Q 62.60 54.63 62.97 55.00
  C 70.15 62.03 72.03 72.33 70.75 81.99
  Q 70.68 82.47 71.04 82.79
  Z
  M 60.75 59.96
  C 61.50 69.36 54.44 78.87 47.26 84.28
  Q 46.89 84.57 47.04 85.01
  C 48.17 88.20 48.91 91.18 51.57 93.84
  C 56.23 98.49 61.03 96.33 63.67 91.15
  C 68.56 81.56 68.41 68.50 61.71 59.59
  Q 60.60 58.12 60.75 59.96
  Z
  M 35.23 85.72
  C 45.15 82.50 56.02 73.06 56.81 61.92
  Q 56.89 60.86 56.13 61.61
  C 49.08 68.47 39.25 70.31 29.65 69.16
  A 1.15 1.15 0.0 0 0 28.54 69.68
  Q 26.20 73.31 25.43 77.73
  C 24.35 83.92 29.73 87.50 35.23 85.72
  Z"
/>
<path fill="#56b881" d="
  M 65.51 25.90
  C 58.43 31.18 51.26 40.63 52.25 49.92
  Q 52.44 51.72 51.31 50.31
  C 46.19 43.93 45.26 35.72 46.41 27.69
  C 47.11 22.79 49.72 15.25 54.89 13.78
  C 60.84 12.09 64.98 20.26 65.83 25.10
  Q 65.92 25.60 65.51 25.90
  Z"
/>
<path fill="#56b881" d="
  M 42.16 27.95
  C 41.07 35.96 42.61 48.46 49.26 54.07
  Q 51.47 55.93 48.64 55.32
  Q 42.45 53.98 37.62 50.44
  C 31.80 46.18 23.85 36.70 25.50 28.80
  C 27.19 20.75 37.60 24.44 41.80 27.15
  Q 42.23 27.43 42.16 27.95
  Z"
/>
<path fill="#56b881" d="
  M 74.67 25.36
  C 88.10 19.83 89.84 30.67 84.78 39.77
  A 1.76 1.74 -70.8 0 1 82.98 40.65
  C 74.53 39.36 62.60 41.37 56.68 48.43
  Q 56.03 49.20 56.13 48.19
  C 57.13 37.91 65.38 29.18 74.67 25.36
  Z"
/>
<path fill="#feffff" d="
  M 371.16 54.92
  A 18.94 18.94 0.0 0 1 352.22 73.86
  A 18.94 18.94 0.0 0 1 333.28 54.92
  A 18.94 18.94 0.0 0 1 352.22 35.98
  A 18.94 18.94 0.0 0 1 371.16 54.92
  Z
  M 361.8577 53.6732
  A 8.79 8.79 0.0 0 0 353.0524 44.8986
  L 351.3924 44.9015
  A 8.79 8.79 0.0 0 0 342.6177 53.7068
  L 342.6223 56.3268
  A 8.79 8.79 0.0 0 0 351.4276 65.1014
  L 353.0876 65.0985
  A 8.79 8.79 0.0 0 0 361.8623 56.2932
  L 361.8577 53.6732
  Z"
/>
<path fill="#feffff" d="
  M 392.39 65.72
  A 2.52 2.49 5.0 0 0 393.78 64.57
  C 396.11 60.44 389.23 58.59 386.54 57.91
  C 383.66 57.18 378.92 54.59 377.12 52.20
  C 373.40 47.26 376.19 40.62 381.46 37.92
  C 389.65 33.73 399.76 36.65 403.07 45.70
  A 0.32 0.32 0.0 0 1 402.85 46.11
  L 395.02 48.18
  A 0.28 0.27 69.6 0 1 394.69 48.02
  Q 392.21 42.30 386.00 43.96
  A 1.86 1.85 2.4 0 0 384.73 45.12
  Q 383.84 47.52 386.30 48.60
  C 393.10 51.58 405.91 54.81 403.18 65.24
  Q 401.87 70.23 396.67 72.46
  C 387.97 76.19 377.66 72.49 374.26 63.41
  Q 374.02 62.75 374.70 62.59
  L 381.69 60.91
  Q 382.36 60.75 382.62 61.38
  C 384.31 65.42 388.31 67.11 392.39 65.72
  Z"
/>
<path fill="#feffff" d="
  M 134.67 61.79
  L 134.65 73.01
  Q 134.65 73.24 134.42 73.24
  L 126.20 73.25
  A 0.30 0.30 0.0 0 1 125.90 72.95
  L 125.90 37.29
  Q 125.90 36.78 126.41 36.77
  C 135.55 36.67 152.13 34.27 153.87 47.51
  Q 154.88 55.21 148.01 59.77
  A 0.40 0.39 -32.6 0 0 147.89 60.29
  L 155.45 72.96
  Q 155.62 73.25 155.28 73.25
  L 146.04 73.24
  Q 145.83 73.24 145.73 73.06
  L 139.31 61.61
  Q 139.11 61.25 138.70 61.25
  L 135.21 61.25
  Q 134.67 61.25 134.67 61.79
  Z
  M 134.65 45.38
  L 134.67 53.16
  A 0.37 0.37 0.0 0 0 135.04 53.53
  L 140.83 53.52
  A 4.18 4.05 -0.1 0 0 145.00 49.46
  L 145.00 49.04
  A 4.18 4.05 -0.1 0 0 140.81 45.00
  L 135.02 45.01
  A 0.37 0.37 0.0 0 0 134.65 45.38
  Z"
/>
<path fill="#feffff" d="
  M 170.00 58.89
  L 169.95 64.61
  A 0.39 0.39 0.0 0 0 170.34 65.00
  L 187.59 65.00
  A 0.39 0.39 0.0 0 1 187.98 65.39
  L 187.97 72.86
  A 0.39 0.39 0.0 0 1 187.58 73.25
  L 161.63 73.25
  A 0.39 0.39 0.0 0 1 161.24 72.86
  L 161.25 37.14
  A 0.39 0.39 0.0 0 1 161.64 36.75
  L 187.28 36.75
  A 0.39 0.39 0.0 0 1 187.67 37.14
  L 187.70 44.61
  A 0.39 0.39 0.0 0 1 187.31 45.00
  L 170.38 45.00
  A 0.39 0.39 0.0 0 0 169.99 45.38
  L 169.93 50.60
  A 0.39 0.39 0.0 0 0 170.31 50.99
  L 183.40 51.00
  A 0.39 0.39 0.0 0 1 183.79 51.39
  L 183.78 58.11
  A 0.39 0.39 0.0 0 1 183.39 58.50
  L 170.39 58.50
  A 0.39 0.39 0.0 0 0 170.00 58.89
  Z"
/>
<path fill="#feffff" d="
  M 204.41 62.34
  L 204.40 73.01
  Q 204.40 73.24 204.18 73.24
  L 195.97 73.25
  A 0.28 0.28 0.0 0 1 195.69 72.97
  L 195.69 37.26
  Q 195.69 36.79 196.16 36.78
  Q 203.65 36.66 211.00 36.85
  C 216.83 37.00 222.38 40.21 223.42 46.33
  C 225.67 59.61 215.25 61.98 205.03 61.73
  Q 204.41 61.72 204.41 62.34
  Z
  M 204.38 45.33
  L 204.44 53.25
  A 0.29 0.29 0.0 0 0 204.73 53.53
  L 209.69 53.50
  A 5.05 4.07 -0.4 0 0 214.71 49.39
  L 214.71 49.03
  A 5.05 4.07 -0.4 0 0 209.63 45.00
  L 204.67 45.03
  A 0.29 0.29 0.0 0 0 204.38 45.33
  Z"
/>
<path fill="#feffff" d="
  M 250.18 61.96
  Q 251.47 58.93 251.37 54.49
  Q 251.16 45.52 251.15 37.07
  A 0.32 0.32 0.0 0 1 251.47 36.75
  L 259.48 36.75
  A 0.26 0.26 0.0 0 1 259.74 37.00
  Q 260.07 51.92 259.62 59.74
  C 259.18 67.35 253.90 72.64 246.49 73.64
  C 235.42 75.13 227.99 68.65 227.85 57.50
  Q 227.72 47.00 227.76 37.05
  Q 227.76 36.75 228.06 36.75
  L 236.20 36.75
  Q 236.51 36.75 236.51 37.06
  Q 236.44 46.18 236.53 55.65
  Q 236.57 60.45 237.44 62.18
  C 239.80 66.94 248.04 66.98 250.18 61.96
  Z"
/>
<path fill="#feffff" d="
  M 275.24 61.76
  L 275.22 73.01
  Q 275.22 73.24 274.99 73.24
  L 266.75 73.25
  A 0.25 0.25 0.0 0 1 266.50 73.00
  L 266.50 37.26
  Q 266.50 36.80 266.97 36.79
  C 276.22 36.63 294.25 34.37 294.68 48.80
  Q 294.87 55.40 288.74 59.68
  Q 288.30 59.99 288.58 60.45
  L 295.98 72.90
  A 0.23 0.23 0.0 0 1 295.79 73.25
  L 286.76 73.25
  A 0.56 0.55 75.0 0 1 286.28 72.97
  L 279.89 61.62
  Q 279.68 61.25 279.25 61.25
  L 275.74 61.25
  Q 275.24 61.25 275.24 61.76
  Z
  M 275.24 45.28
  L 275.20 53.20
  A 0.29 0.29 0.0 0 0 275.49 53.49
  L 281.50 53.53
  A 4.05 4.04 -89.7 0 0 285.56 49.50
  L 285.56 49.10
  A 4.05 4.04 -89.7 0 0 281.54 45.03
  L 275.53 44.99
  A 0.29 0.29 0.0 0 0 275.24 45.28
  Z"
/>
<path fill="#feffff" d="
  M 310.50 62.25
  L 310.51 73.00
  Q 310.51 73.25 310.25 73.25
  L 302.02 73.24
  Q 301.80 73.24 301.80 73.02
  L 301.80 37.30
  Q 301.80 36.91 302.18 36.90
  Q 313.62 36.34 319.56 37.06
  C 325.26 37.76 329.14 42.00 329.78 47.76
  C 331.13 60.14 320.55 61.91 311.03 61.74
  Q 310.50 61.73 310.50 62.25
  Z
  M 310.49 45.40
  L 310.51 53.16
  A 0.37 0.37 0.0 0 0 310.88 53.53
  L 315.86 53.51
  A 4.99 4.00 -0.2 0 0 320.84 49.49
  L 320.84 48.99
  A 4.99 4.00 -0.2 0 0 315.84 45.01
  L 310.86 45.03
  A 0.37 0.37 0.0 0 0 310.49 45.40
  Z"
/>
<path fill="#feffff" d="
  M 417.61 45.37
  L 417.56 50.63
  A 0.37 0.37 0.0 0 0 417.93 51.00
  L 431.13 51.00
  A 0.37 0.37 0.0 0 1 431.50 51.37
  L 431.49 58.13
  A 0.37 0.37 0.0 0 1 431.12 58.50
  L 417.99 58.50
  A 0.37 0.37 0.0 0 0 417.62 58.87
  L 417.56 64.63
  A 0.37 0.37 0.0 0 0 417.93 65.00
  L 435.29 65.00
  A 0.37 0.37 0.0 0 1 435.66 65.37
  L 435.64 72.88
  A 0.37 0.37 0.0 0 1 435.27 73.25
  L 409.29 73.25
  A 0.37 0.37 0.0 0 1 408.92 72.88
  L 408.92 37.12
  A 0.37 0.37 0.0 0 1 409.29 36.75
  L 434.93 36.75
  A 0.37 0.37 0.0 0 1 435.30 37.12
  L 435.32 44.63
  A 0.37 0.37 0.0 0 1 434.95 45.00
  L 417.98 45.00
  A 0.37 0.37 0.0 0 0 417.61 45.37
  Z"
/>
<path fill="#56b881" d="
  M 85.57 63.88
  C 79.64 56.24 70.76 50.01 60.76 50.66
  Q 60.12 50.70 60.54 50.22
  Q 61.33 49.29 62.44 48.66
  C 71.28 43.57 81.89 43.17 91.23 47.24
  C 104.59 53.05 95.41 62.74 86.35 64.19
  Q 85.87 64.26 85.57 63.88
  Z"
/>
<rect fill="#56b881" x="-9.62" y="-10.10" transform="translate(352.24,55.00) rotate(-0.1)" width="19.24" height="20.20" rx="8.79"/>
<path fill="#56b881" d="
  M 134.65 45.38
  A 0.37 0.37 0.0 0 1 135.02 45.01
  L 140.81 45.00
  A 4.18 4.05 -0.1 0 1 145.00 49.04
  L 145.00 49.46
  A 4.18 4.05 -0.1 0 1 140.83 53.52
  L 135.04 53.53
  A 0.37 0.37 0.0 0 1 134.67 53.16
  L 134.65 45.38
  Z"
/>
<path fill="#56b881" d="
  M 204.38 45.33
  A 0.29 0.29 0.0 0 1 204.67 45.03
  L 209.63 45.00
  A 5.05 4.07 -0.4 0 1 214.71 49.03
  L 214.71 49.39
  A 5.05 4.07 -0.4 0 1 209.69 53.50
  L 204.73 53.53
  A 0.29 0.29 0.0 0 1 204.44 53.25
  L 204.38 45.33
  Z"
/>
<path fill="#56b881" d="
  M 275.24 45.28
  A 0.29 0.29 0.0 0 1 275.53 44.99
  L 281.54 45.03
  A 4.05 4.04 -89.7 0 1 285.56 49.10
  L 285.56 49.50
  A 4.05 4.04 -89.7 0 1 281.50 53.53
  L 275.49 53.49
  A 0.29 0.29 0.0 0 1 275.20 53.20
  L 275.24 45.28
  Z"
/>
<path fill="#56b881" d="
  M 310.49 45.40
  A 0.37 0.37 0.0 0 1 310.86 45.03
  L 315.84 45.01
  A 4.99 4.00 -0.2 0 1 320.84 48.99
  L 320.84 49.49
  A 4.99 4.00 -0.2 0 1 315.86 53.51
  L 310.88 53.53
  A 0.37 0.37 0.0 0 1 310.51 53.16
  L 310.49 45.40
  Z"
/>
<path fill="#56b881" d="
  M 49.29 61.78
  Q 34.55 69.25 19.87 61.55
  C 8.64 55.66 19.20 46.84 26.32 45.53
  Q 26.84 45.43 27.17 45.84
  C 32.84 52.85 41.78 60.39 51.55 59.39
  Q 52.90 59.25 51.86 60.12
  Q 50.83 61.00 49.29 61.78
  Z"
/>
<path fill="#56b881" d="
  M 87.42 81.18
  C 85.87 88.49 74.79 86.14 71.04 82.79
  Q 70.68 82.47 70.75 81.99
  C 72.03 72.33 70.15 62.03 62.97 55.00
  Q 62.60 54.63 63.12 54.70
  Q 69.90 55.55 75.15 59.37
  C 80.89 63.55 89.07 73.44 87.42 81.18
  Z"
/>
<path fill="#56b881" d="
  M 47.26 84.28
  C 54.44 78.87 61.50 69.36 60.75 59.96
  Q 60.60 58.12 61.71 59.59
  C 68.41 68.50 68.56 81.56 63.67 91.15
  C 61.03 96.33 56.23 98.49 51.57 93.84
  C 48.91 91.18 48.17 88.20 47.04 85.01
  Q 46.89 84.57 47.26 84.28
  Z"
/>
<path fill="#56b881" d="
  M 56.81 61.92
  C 56.02 73.06 45.15 82.50 35.23 85.72
  C 29.73 87.50 24.35 83.92 25.43 77.73
  Q 26.20 73.31 28.54 69.68
  A 1.15 1.15 0.0 0 1 29.65 69.16
  C 39.25 70.31 49.08 68.47 56.13 61.61
  Q 56.89 60.86 56.81 61.92
  Z"
/>
</svg>
